<svg xmlns="http://www.w3.org/2000/svg" viewBox="0 0 800 1000" role="img" aria-label="Precisiˇn y orden contable">
  <rect width="800" height="1000" fill="#FAFAFA"/>
  <rect x="48" y="48" width="704" height="904" fill="#fff" stroke="#E5E7EB" stroke-width="1"/>
  <g stroke="#0F3460" stroke-opacity="0.08" stroke-width="1">
    <line x1="80" y1="140" x2="720" y2="140"/>
    <line x1="80" y1="200" x2="720" y2="200"/>
    <line x1="80" y1="260" x2="720" y2="260"/>
    <line x1="80" y1="320" x2="720" y2="320"/>
    <line x1="80" y1="380" x2="720" y2="380"/>
    <line x1="80" y1="440" x2="720" y2="440"/>
    <line x1="80" y1="500" x2="720" y2="500"/>
    <line x1="80" y1="560" x2="720" y2="560"/>
    <line x1="80" y1="620" x2="720" y2="620"/>
    <line x1="80" y1="680" x2="720" y2="680"/>
    <line x1="80" y1="740" x2="720" y2="740"/>
    <line x1="80" y1="800" x2="720" y2="800"/>
  </g>
  <rect x="120" y="280" width="280" height="200" fill="#0F3460" fill-opacity="0.06"/>
  <rect x="420" y="360" width="260" height="4" fill="#C9A24B"/>
  <rect x="420" y="390" width="200" height="3" fill="#0F3460" fill-opacity="0.15"/>
  <rect x="420" y="415" width="220" height="3" fill="#0F3460" fill-opacity="0.1"/>
  <polyline points="160,720 240,640 320,680 400,560 480,520 560,420 640,380" fill="none" stroke="#1F8A70" stroke-width="3" stroke-linecap="square" stroke-linejoin="miter"/>
  <circle cx="640" cy="380" r="6" fill="#1F8A70"/>
  <text x="400" y="920" text-anchor="middle" font-family="ui-monospace, monospace" font-size="11" fill="#C9A24B" letter-spacing="0.2em">ORDEN Ě CLARIDAD Ě CRECIMIENTO</text>
</svg>
